<?xml version="1.0" encoding="UTF-8" standalone="no"?>
<!-- Created with Inkscape (http://www.inkscape.org/) -->

<svg
   version="1.1"
   id="svg1"
   width="170.66667"
   height="170.66667"
   viewBox="0 0 170.66667 170.66667"
   sodipodi:docname="rpi-imager.svg"
   xml:space="preserve"
   inkscape:version="1.3.2 (091e20ef0f, 2023-11-25)"
   inkscape:export-filename="rpi-imager-2.svg"
   inkscape:export-xdpi="96"
   inkscape:export-ydpi="96"
   xmlns:inkscape="http://www.inkscape.org/namespaces/inkscape"
   xmlns:sodipodi="http://sodipodi.sourceforge.net/DTD/sodipodi-0.dtd"
   xmlns:xlink="http://www.w3.org/1999/xlink"
   xmlns="http://www.w3.org/2000/svg"
   xmlns:svg="http://www.w3.org/2000/svg"><defs
     id="defs1"><linearGradient
       id="linearGradient66"
       inkscape:collect="always"><stop
         style="stop-color:#eae8e5;stop-opacity:1;"
         offset="0.53860301"
         id="stop66" /><stop
         style="stop-color:#ffffff;stop-opacity:1;"
         offset="1"
         id="stop67" /></linearGradient><linearGradient
       id="linearGradient59"
       inkscape:collect="always"><stop
         style="stop-color:#ca2856;stop-opacity:1;"
         offset="0"
         id="stop60" /><stop
         style="stop-color:#d25763;stop-opacity:1;"
         offset="1"
         id="stop59" /></linearGradient><path
       d="M99.9 73.5c-.6-5.9-3.2-11.2-7-13.9-.7-2.4-1.8-4.5-3.2-6.3-.2-2.8-1.4-8.2-6.9-13 .6-.5 1.2-1.2 1.6-1.9 4.6-2 7.8-6.3 8.2-9.5 2.4-2.4 3.8-5.3 4-8.2.1-1.4-.2-2.6-.7-3.7 2-2.2 2.7-4.8 1.8-7.2-1.4-4-6.2-6.5-12.6-6.8-1.7-1.6-4.1-2.4-7-2.4-1.2 0-2.5.2-3.8.5-1-.5-2.3-.8-3.7-.8-2.4 0-5.1.7-7.1 1.9-.4-.2-.6-.2-.9-.2-3.2 0-6.4 2.2-8 3.5-1.6 1.3-3.1 2.8-4.2 4.4-1.2-1.6-2.6-3.1-4.2-4.4-1.6-1.3-4.8-3.5-8-3.5-.3 0-.6 0-.9.1C35.3.9 32.6.2 30.2.2c-1.4 0-2.7.3-3.7.8-1.3-.3-2.6-.5-3.8-.5-2.9 0-5.3.8-7 2.4-6.4.3-11.2 2.8-12.6 6.8-.9 2.5-.2 5.1 1.8 7.2-.5 1.1-.8 2.3-.7 3.7.1 2.9 1.5 5.8 4 8.2.4 3.2 3.6 7.5 8.2 9.5.4.8 1 1.4 1.6 1.9-5.5 4.8-6.7 10.2-6.9 13-1.5 1.8-2.6 3.9-3.2 6.3-3.8 2.8-6.4 8-7 13.9-.6 5.9 1 11.4 4.3 14.8.4 2.6 2 6.1 3.6 8.2.3 4.5 2.2 8.8 5.4 12.4 3.2 3.6 7.4 6.1 11.9 7 2.7 2.5 5.6 4.3 9.5 5.9 1.7 1.7 6.6 5.8 14.9 5.8s13.2-4.1 14.9-5.8c3.9-1.6 6.8-3.3 9.5-5.9 4.5-.9 8.7-3.4 11.9-7 3.2-3.6 5.1-8 5.4-12.4 1.6-2.1 3.1-5.6 3.6-8.2 3-3.4 4.7-8.9 4.1-14.7Zm-22.2-18c-3.9-2.1-7.6-5.2-10.3-8.7-3.7-4.4-1.3-6.4 4.5-5.3 4.3 1.1 8.5 4.5 10.2 8.6 2.2 5.6.6 8.2-4.4 5.4ZM62.4 8.6c.3-.1.7.2.6.5-.2 1.5.8 1.3 1 1.1 2.4-3 4.9-3.6 7.2-3.4.4 0 .6.5.3.8-.9 1.3.1 1.6.4 1.3 3.7-2.3 7.2-2.3 8.5-1.3.3.2.3.6 0 .8-1.4 1.2-.6 1.7-.1 1.6 3.7-1.3 8.9-.2 10.7 1.4.2.2.2.6 0 .8-2.3 2-3.4 3.6-3.9 6.8-.1.9 1.4.7 2 .5.3-.1.6.2.6.5.1 2.1-2 4.5-5 6.5-.4.3-.3.9.6.9.4 0 .6.4.4.8-1.1 2-2.5 3.9-7.5 5.2-.5.1-.5.8-.1 1 .4.2.4.6.2.9-5 4.3-17.6 2.6-19.2-4.6 0-.1 0-.3.1-.4 3-4 9.9-11.8 20.9-15.9.4-.2.3-.8-.2-.8-10.5 1.5-18 7.4-22.6 13.6-.2.2-.4.3-.7.1-8-4.2-1.4-16.5 5.8-18.7Zm-12 31.9c1.6 0 5.6.1 9.8 3.4 7 5.8-1 10-9.8 10s-16.8-4.1-9.8-10c4.2-3.3 8.2-3.4 9.8-3.4ZM14.9 28.2c-.2-.3 0-.7.4-.8.9 0 1-.7.6-.9-3-2-5.1-4.4-5-6.5 0-.3.3-.6.6-.5.6.2 2.1.3 2-.5-.5-3.2-1.6-4.8-3.9-6.8-.2-.2-.2-.6 0-.8 1.8-1.5 7-2.7 10.7-1.4.5.2 1.2-.4-.1-1.6-.2-.2-.2-.6 0-.8 1.3-1 4.9-1 8.5 1.3.4.2 1.3 0 .4-1.3-.2-.3-.1-.8.3-.8 2.3-.2 4.8.5 7.2 3.4.2.3 1.1.5 1-1.1 0-.4.3-.6.6-.5 7.2 2.2 13.8 14.5 5.7 18.7-.2.1-.5.1-.7-.1-4.4-6.2-11.8-12.1-22.5-13.7-.5-.1-.6.6-.2.8 11 4.1 17.9 11.9 20.9 15.9.1.1.1.3.1.4-1.6 7.2-14.2 8.9-19.2 4.6-.3-.2-.3-.7.2-.9.4-.2.4-.8-.1-1-5-1.3-6.4-3.1-7.5-5.1Zm3.6 21.9c1.8-4.1 5.9-7.5 10.2-8.6 5.8-1.1 8.2.9 4.5 5.3-2.8 3.4-6.4 6.5-10.3 8.7-4.8 2.8-6.4.2-4.4-5.4ZM8.4 80.8c-1.6-4.2-1.2-9.4 1.2-13.4 2.6-4.4 5.2-4.2 6.2-.5 1.3 4.9.8 10.8-1.4 15.5-1.9 3.8-4.3 2.5-6-1.6Zm18.7 28.6c-6.2-1.3-11.5-7.6-11.8-14 1-22.6 33.7 17.9 11.8 14Zm.7-28.3c-5.5-3.2-6.9-10.9-3.2-17.3s11.1-9 16.6-5.9c5.5 3.2 6.9 10.9 3.2 17.3-3.7 6.5-11.2 9.1-16.6 5.9Zm31.7 37c-2.6 1.9-5.7 3-9.1 3-3.4 0-6.6-1.1-9.1-3-5.4-3.8 0-8.1 9.1-8.1s14.5 4.3 9.1 8.1Zm-9.1-13.8c-7 0-12.7-4.9-12.7-10.9s5.7-10.9 12.7-10.9c7 0 12.7 4.9 12.7 10.9s-5.7 10.9-12.7 10.9Zm6-29c-3.7-6.4-2.2-14.2 3.2-17.3 5.5-3.2 12.9-.5 16.6 5.9 3.7 6.4 2.2 14.2-3.2 17.3-5.5 3.1-12.9.5-16.6-5.9Zm17.2 34.1c-21.9 3.9 10.8-36.7 11.8-14-.2 6.4-5.5 12.7-11.8 14Zm18.8-28.6c-1.7 4.1-4.1 5.4-6.1 1.6-2.2-4.6-2.7-10.5-1.4-15.5 1-3.7 3.7-3.9 6.2.5 2.5 4 2.9 9.1 1.3 13.4Z"
       id="a" /><clipPath
       clipPathUnits="userSpaceOnUse"
       id="clipPath7"><g
         inkscape:label="Clip"
         id="use7" /></clipPath><linearGradient
       inkscape:collect="always"
       xlink:href="#linearGradient59"
       id="linearGradient60"
       x1="146.66618"
       y1="164.71101"
       x2="146.66618"
       y2="107.28765"
       gradientUnits="userSpaceOnUse"
       spreadMethod="pad" /><linearGradient
       inkscape:collect="always"
       xlink:href="#linearGradient66"
       id="linearGradient67"
       x1="87.346016"
       y1="159.9173"
       x2="88.183891"
       y2="10.932478"
       gradientUnits="userSpaceOnUse" /><linearGradient
       inkscape:collect="always"
       xlink:href="#linearGradient66"
       id="linearGradient73"
       x1="87.346016"
       y1="159.9173"
       x2="88.183891"
       y2="10.932478"
       gradientUnits="userSpaceOnUse" /><clipPath
       clipPathUnits="userSpaceOnUse"
       id="clipPath117"><path
         id="path118"
         style="display:inline;opacity:1;fill:#ffffff;fill-opacity:1;stroke:none;stroke-width:0.871469"
         d="m -14.77069,43.53441 c -1.788399,0.01907 -3.685305,0.703896 -5.515393,2.991503 -0.174298,0.174293 -1.044697,0.349004 -0.870521,-0.9582 0.08713,-0.261439 -0.262553,-0.523431 -0.523982,-0.436303 -6.274581,1.917231 -12.025784,12.637569 -5.054033,16.297739 0.261429,0.174313 0.435411,0.08662 0.609573,-0.08768 4.008761,-5.403107 10.543811,-10.543991 19.6942351,-11.851194 0.4356169,0 0.5239459,0.522958 0.1753541,0.697252 -9.5861582,3.573022 -15.5997312,10.369394 -18.2141362,13.855271 -0.08723,0.08715 -0.08768,0.261496 -0.08768,0.348625 1.394354,6.274576 12.37462,7.755472 16.7319538,4.008155 0.1744241,-0.26144 0.175322,-0.608551 -0.1732699,-0.782842 -0.3484849,-0.174295 -0.3480574,-0.785449 0.087645,-0.872609 4.3573446,-1.132909 5.5776085,-2.7892 6.5361986,-4.532137 0.1743067,-0.348589 -4.27e-5,-0.697252 -0.3486132,-0.697252 -0.7843263,0 -0.8725805,-0.521402 -0.5239887,-0.782843 2.61440682,-1.742938 4.4440277,-3.835608 4.3567782,-5.665693 0,-0.261442 -0.2604338,-0.521366 -0.5218938,-0.434215 -0.522877,0.174292 -1.83036902,0.348017 -1.74311951,-0.436306 0.43574515,-2.788699 1.39418571,-4.183701 3.39857271,-5.92664 0.174157,-0.174295 0.174157,-0.522959 0,-0.697252 -1.5686419,-1.39435 -6.1007741,-2.352057 -9.325222,-1.219146 -0.4356382,0.08715 -1.132373,-0.348742 0.087645,-1.394504 0.2614279,-0.174294 0.2614279,-0.522959 0,-0.697253 -1.1329288,-0.871467 -4.1822902,-0.870822 -7.4067372,1.133557 -0.261353,0.261439 -1.132929,-6.46e-4 -0.348614,-1.133557 0.26145,-0.26144 0.08765,-0.697251 -0.260957,-0.697251 -0.250547,-0.02178 -0.504397,-0.03196 -0.759871,-0.02922 z m -34.908524,0.0021 c -0.255482,-0.0049 -0.509333,0.0053 -0.759879,0.02714 -0.348677,0 -0.435115,0.435812 -0.260949,0.697253 0.784336,1.13291 -3.7e-5,1.307848 -0.348625,1.133555 -3.137289,-2.004378 -6.275925,-2.005024 -7.408823,-1.133555 -0.174166,0.174293 -0.174166,0.522958 0,0.697252 1.132977,1.045762 0.523427,1.568798 0.08768,1.394503 -3.224422,-1.13291 -7.756578,-0.08805 -9.325221,1.219147 -0.174421,0.174293 -0.174421,0.522957 0,0.697252 2.004367,1.742939 2.962858,3.13794 3.398582,5.92664 0.08716,0.697177 -1.218162,0.610598 -1.741042,0.436305 -0.26143,-0.08715 -0.523983,0.172773 -0.523983,0.434216 -0.08714,1.830085 1.742372,3.922755 4.35678,5.665693 0.348587,0.174294 0.26244,0.782843 -0.521895,0.782843 -0.348586,0.08715 -0.522793,0.435811 -0.348626,0.697252 0.958628,1.742938 2.178667,3.311549 6.536214,4.444458 0.435801,0.174293 0.436266,0.698316 0.08768,0.872609 -0.435848,0.174294 -0.436783,0.610634 -0.175357,0.78493 4.357347,3.747315 15.337616,2.264334 16.731957,-4.010242 0,-0.08715 0.0016,-0.261477 -0.08558,-0.348626 -2.614402,-3.485876 -8.627979,-10.282249 -18.214139,-13.85527 -0.348714,-0.174295 -0.262453,-0.784402 0.17327,-0.697252 9.32473,1.39435 15.774199,6.535761 19.608642,11.938872 0.174298,0.174257 0.435408,0.174807 0.609573,0.08768 7.058905,-3.660168 1.308233,-14.380509 -4.966353,-16.29774 -0.261442,-0.08715 -0.523983,0.08771 -0.523983,0.436304 0.08714,1.394351 -0.696356,1.219639 -0.870522,0.9582 -1.830081,-2.211354 -3.727009,-2.954862 -5.515387,-2.989415 z m 17.541937,29.395217 c -1.394352,0 -4.880116,0.08643 -8.540291,2.962277 -6.100277,5.141667 0.871358,8.715648 8.540291,8.715648 7.66892,0 14.64058,-3.661128 8.540292,-8.715648 -3.660162,-2.875833 -7.145938,-2.962277 -8.540292,-2.962277 z m -16.395855,0.613749 c -0.723878,-0.0062 -1.567813,0.07912 -2.515535,0.25886 -3.747304,0.958616 -7.320271,3.92139 -8.888918,7.494413 -1.742935,4.880227 -0.348164,7.145519 3.834887,4.705406 3.398741,-1.917229 6.534394,-4.619098 8.974506,-7.582092 2.619843,-3.1155 1.731859,-4.849757 -1.40494,-4.876587 z m 32.616356,0 c -3.136803,0.02683 -4.026893,1.761087 -1.407034,4.876587 2.352948,3.050141 5.577887,5.752007 8.976599,7.582092 4.3573446,2.440113 5.7521182,0.174821 3.8348844,-4.705406 -1.4814886,-3.573023 -5.1415854,-6.535797 -8.8889214,-7.494413 -0.94772,-0.17974 -1.791655,-0.265051 -2.515528,-0.25886 z M -44.483227,86.95813 c -3.836996,-0.02759 -7.821823,2.270685 -10.139377,6.279442 -3.224449,5.577401 -2.004086,12.287798 2.789007,15.076508 4.705932,2.78869 11.242486,0.52283 14.466931,-5.14171 3.224421,-5.577403 2.004066,-12.287808 -2.789007,-15.076508 -1.348053,-0.759811 -2.826121,-1.126935 -4.327554,-1.137732 z m 24.6919,0.04801 c -1.501431,0.01355 -2.98159,0.393073 -4.329641,1.177395 -4.705928,2.701553 -6.013454,9.499106 -2.789008,15.076505 3.224422,5.5774 9.673847,7.84326 14.466934,5.14171 4.7059255,-2.70155 6.0134282,-9.499103 2.7890017,-15.076504 C -11.97163,89.31653 -15.954346,86.971559 -19.791327,87.00618 Z m -44.678393,6.502813 c -0.958616,0.03267 -2.092403,0.949015 -3.225313,2.866248 -2.091525,3.485875 -2.440227,8.017759 -1.045878,11.677929 1.481486,3.57302 3.573587,4.704 5.22939,1.39241 1.917232,-4.0959 2.354132,-9.23645 1.221234,-13.506644 -0.435735,-1.612218 -1.220817,-2.462624 -2.179433,-2.429943 z m 64.6085304,0 c -0.96952441,-0.03267 -1.7750245,0.817725 -2.2107589,2.429943 -1.1328861,4.357344 -0.6980709,9.497884 1.21915223,13.506644 1.74294854,3.31159 3.83555777,2.18061 5.31705707,-1.39241 C 5.8586175,104.30585 5.509395,99.861116 3.330712,96.375241 2.2413812,94.458008 1.1083134,93.541674 0.1388104,93.508993 Z M -32.137277,109.53326 c -6.100281,0 -11.06835,4.26968 -11.06835,9.49849 0,5.22883 4.968069,9.50059 11.06835,9.50059 6.100281,0 11.066264,-4.27176 11.066264,-9.50059 0,-5.22881 -4.965983,-9.49849 -11.066264,-9.49849 z m 26.7502643,5.19599 c -7.3116003,-0.1121 -21.4423393,20.90279 -6.5320413,18.24754 5.4902418,-1.1329 10.1071652,-6.6245 10.2813222,-12.20191 -0.1906278,-4.32738 -1.702044,-6.01425 -3.7492809,-6.04563 z m -53.5902843,0.0355 c -2.047249,0.0263 -3.55866,1.70184 -3.749294,6.01015 0.261453,5.57741 4.880312,11.06901 10.283421,12.20191 14.910298,2.65525 0.777474,-18.30586 -6.534127,-18.21206 z m 26.84002,18.73396 c -7.930387,0 -12.636641,3.74862 -7.930717,7.0602 2.17869,1.65578 4.967725,2.61364 7.930717,2.61364 2.962991,0 5.662809,-0.95786 7.92863,-2.61364 4.705935,-3.31158 0.0017,-7.0602 -7.92863,-7.0602 z" /></clipPath><filter
       inkscape:collect="always"
       style="color-interpolation-filters:sRGB"
       id="filter120"
       x="-0.13555325"
       y="-0.096122306"
       width="1.2711065"
       height="1.1922446"><feGaussianBlur
         inkscape:collect="always"
         stdDeviation="2.3001098"
         id="feGaussianBlur120" /></filter></defs><sodipodi:namedview
     id="namedview1"
     pagecolor="#505050"
     bordercolor="#eeeeee"
     borderopacity="1"
     inkscape:showpageshadow="0"
     inkscape:pageopacity="0"
     inkscape:pagecheckerboard="0"
     inkscape:deskcolor="#505050"
     showgrid="false"
     inkscape:zoom="3.3849974"
     inkscape:cx="71.34422"
     inkscape:cy="87.296965"
     inkscape:window-width="1920"
     inkscape:window-height="1011"
     inkscape:window-x="0"
     inkscape:window-y="32"
     inkscape:window-maximized="1"
     inkscape:current-layer="layer1" /><g
     inkscape:groupmode="layer"
     id="layer1"
     inkscape:label="Image 1"
     style="display:inline;opacity:1"><rect
       style="display:inline;fill:url(#linearGradient73);fill-rule:evenodd;stroke:url(#linearGradient67);stroke-width:5;stroke-linecap:round;stroke-linejoin:round;stroke-dasharray:none;stroke-opacity:1"
       id="rect1"
       width="144.36031"
       height="144.29721"
       x="13.153183"
       y="13.184731"
       inkscape:label="background"
       ry="17.882608" /><path
       style="display:inline;fill:#1d1d1b;fill-opacity:1;stroke-width:0.81534"
       d="m 125.69446,93.201391 c -0.48921,-4.810511 -2.60911,-9.131819 -5.70739,-11.333238 -0.57072,-1.956818 -1.46761,-3.669034 -2.6091,-5.136646 -0.16294,-2.282955 -1.14147,-6.685795 -5.62583,-10.599431 0.48921,-0.407671 0.97841,-0.97841 1.30455,-1.549148 3.75055,-1.630682 6.35966,-5.136647 6.68579,-7.745738 1.95682,-1.956818 3.09829,-4.321307 3.26137,-6.685794 0.0816,-1.141478 -0.16319,-2.119888 -0.57075,-3.016762 1.63068,-1.79375 2.20142,-3.913636 1.4676,-5.870453 -1.14146,-3.261363 -5.0551,-5.299715 -10.2733,-5.544317 -1.38605,-1.304547 -3.34288,-1.95682 -5.70738,-1.95682 -0.9784,0 -2.03833,0.163069 -3.09829,0.40767 -0.81534,-0.40767 -1.87527,-0.652272 -3.01675,-0.652272 -1.956811,0 -4.15825,0.570738 -5.78893,1.549149 -0.326133,-0.163069 -0.489207,-0.163069 -0.733798,-0.163069 -2.609084,0 -5.218179,1.793751 -6.522726,2.853693 -1.304536,1.059942 -2.527564,2.282953 -3.424424,3.587499 -0.978414,-1.304546 -2.119889,-2.527557 -3.424436,-3.587499 -1.304547,-1.059942 -3.913631,-2.853693 -6.522721,-2.853693 -0.244615,0 -0.489207,0 -0.733821,0.08152 -1.630682,-0.978408 -3.832086,-1.549147 -5.788905,-1.549147 -1.141477,0 -2.201431,0.244602 -3.016772,0.652272 -1.059931,-0.244601 -2.119886,-0.40767 -3.098296,-0.40767 -2.364476,0 -4.321294,0.652273 -5.707385,1.956817 -5.218181,0.244604 -9.131817,2.282954 -10.273295,5.544318 -0.733794,2.038352 -0.162949,4.15824 1.467614,5.870455 -0.407659,0.896874 -0.652273,1.875283 -0.570727,3.016759 0.0816,2.36449 1.223,4.728978 3.261365,6.685797 0.326135,2.609089 2.935226,6.115055 6.685793,7.745737 0.326136,0.652272 0.815341,1.141478 1.304545,1.549148 -4.484386,3.913636 -5.462794,8.316476 -5.625862,10.59943 -1.223,1.467613 -2.119887,3.179829 -2.609092,5.136648 -3.098295,2.282954 -5.218181,6.522726 -5.707384,11.333236 -0.489206,4.810512 0.81534,9.294878 3.505976,12.067038 0.326137,2.11988 1.630682,4.97359 2.935227,6.68579 0.24459,3.66904 1.793751,7.17501 4.40284,10.11023 2.609091,2.93523 6.033522,4.97359 9.702545,5.70738 2.201431,2.03836 4.565908,3.50597 7.745745,4.81052 1.386068,1.38607 5.381247,4.72898 12.148564,4.72898 6.767342,0 10.762503,-3.34291 12.148595,-4.72898 3.179815,-1.30455 5.544315,-2.69062 7.745725,-4.81052 3.66904,-0.73379 7.09347,-2.77215 9.70256,-5.70738 2.60909,-2.93522 4.15823,-6.52272 4.40285,-10.11023 1.30454,-1.7122 2.52754,-4.56591 2.93523,-6.68579 2.44602,-2.77216 3.83209,-7.256526 3.34288,-11.985503 z"
       id="a-29"
       inkscape:label="raspberry-background" /><g
       id="g9"
       clip-path="url(#clipPath117)"
       transform="matrix(0.93559274,0,0,0.93559274,115.40334,-1.9394628)"
       style="display:inline;stroke:none"
       inkscape:label="raspberry"><rect
         style="display:inline;mix-blend-mode:normal;fill:#46af4b;fill-opacity:1;fill-rule:evenodd;stroke:none;stroke-width:0.280074;stroke-linecap:round;stroke-linejoin:round;stroke-dasharray:none"
         id="rect3"
         width="90.617447"
         height="36.120289"
         x="-77.446892"
         y="36.811665"
         inkscape:label="green" /><rect
         style="display:inline;mix-blend-mode:normal;fill:#cd2355;fill-opacity:1;fill-rule:evenodd;stroke:none;stroke-width:0.262935;stroke-linecap:round;stroke-linejoin:round;stroke-dasharray:none"
         id="rect2"
         width="90.617447"
         height="76.203094"
         x="-77.446892"
         y="72.931953"
         ry="0"
         inkscape:label="red" /></g><path
       style="display:inline;opacity:0.5;mix-blend-mode:normal;fill:#515151;fill-opacity:1;fill-rule:evenodd;stroke:none;stroke-width:1.946;stroke-linecap:round;stroke-linejoin:round;stroke-dasharray:none;stroke-opacity:1;filter:url(#filter120)"
       d="m 129.01495,107.34829 35.69664,-0.0667 -4.5e-4,57.42958 -40.69685,-0.003 -0.01,-19.98124 2.66335,-2.73589 v -3.98139 l -2.677,-0.0343 -0.003,-6.62504 5.04124,-5.30778 z"
       id="path59-8"
       sodipodi:nodetypes="ccccccccccc"
       inkscape:label="sdcard-shadow" /><g
       id="g74"
       style="display:inline;opacity:1"
       inkscape:label="sdcard"><path
         style="display:inline;opacity:1;fill:url(#linearGradient60);fill-rule:evenodd;stroke:#f8f8f8;stroke-width:1.946;stroke-linecap:round;stroke-linejoin:round;stroke-dasharray:none;stroke-opacity:1"
         d="m 129.01495,107.34829 35.69664,-0.0667 -4.5e-4,57.42958 -40.69685,-0.003 -0.01,-19.98124 2.66335,-2.73589 v -3.98139 l -2.677,-0.0343 -0.003,-6.62504 5.04124,-5.30778 z"
         id="path59"
         sodipodi:nodetypes="ccccccccccc"
         inkscape:label="card" /><path
         style="display:inline;opacity:1;fill:#ffffff;fill-opacity:1;fill-rule:evenodd;stroke:#f8f8f8;stroke-width:0.746;stroke-linecap:round;stroke-linejoin:round;stroke-dasharray:none;stroke-opacity:1"
         d="m 141.935,121.3104 9.42112,0.0242 0.008,20.03411 4.64423,-0.035 -9.99954,10.79881 -10.00577,-10.80316 5.95762,-0.006 z"
         id="path66"
         sodipodi:nodetypes="cccccccc"
         inkscape:label="arrow" /></g></g></svg>
